<svg xmlns="http://www.w3.org/2000/svg" viewBox="0 0 800 240" width="800" height="240">
  <rect width="800" height="240" fill="#FBF8F1"/>

  <line x1="50" y1="170" x2="320" y2="170"
        stroke="#181613" stroke-width="0.8" opacity="0.35"/>

  <g transform="translate(80,0)" fill="#0E5132" stroke="#0E5132" stroke-linecap="round">
    <line x1="0" y1="170" x2="0" y2="148" stroke-width="1.6" stroke="#0E5132"/>
    <ellipse cx="-4" cy="148" rx="6" ry="2.2" stroke="none"
             transform="rotate(-30 -4 148)"/>
    <ellipse cx="4" cy="146" rx="6.5" ry="2.4" stroke="none"
             transform="rotate(30 4 146)"/>
  </g>

  <g transform="translate(170,0)" fill="#0E5132" stroke-linecap="round">
    <line x1="0" y1="170" x2="0" y2="108" stroke="#0E5132" stroke-width="2"/>
    <ellipse cx="-12" cy="138" rx="11" ry="4" stroke="none"
             transform="rotate(-32 -12 138)"/>
    <ellipse cx="13" cy="124" rx="13" ry="4.5" stroke="none"
             transform="rotate(32 13 124)"/>
    <ellipse cx="-9" cy="110" rx="9" ry="3.2" stroke="none"
             transform="rotate(-38 -9 110)"/>
  </g>

  <g transform="translate(280,0)" fill="#0E5132" stroke-linecap="round">
    <path d="M 0 170 Q -3 110 2 52"
          stroke="#0E5132" stroke-width="2.4" fill="none"/>
    <ellipse cx="-15" cy="148" rx="14" ry="5" stroke="none"
             transform="rotate(-30 -15 148)"/>
    <ellipse cx="17" cy="124" rx="18" ry="5.6" stroke="none"
             transform="rotate(32 17 124)"/>
    <ellipse cx="-17" cy="98" rx="20" ry="6" stroke="none"
             transform="rotate(-36 -17 98)"/>
    <ellipse cx="15" cy="72" rx="22" ry="6.5" stroke="none"
             transform="rotate(34 15 72)"/>
    <circle cx="2" cy="50" r="3.5" stroke="none"/>
  </g>

  <text x="380" y="180"
        font-family="Boska, ui-serif, Charter, Georgia, 'Times New Roman', serif"
        font-size="92" font-weight="400" letter-spacing="-2"
        fill="#181613">kavel</text>
</svg>
